<?xml version="1.0" encoding="UTF-8"?>
<svg xmlns="http://www.w3.org/2000/svg" xmlns:xlink="http://www.w3.org/1999/xlink" width="50pt" height="50pt" viewBox="0 0 50 50" version="1.1">
<defs>
<radialGradient id="radial0" gradientUnits="userSpaceOnUse" cx="332.14" cy="2511.81" fx="332.14" fy="2511.81" r="3263.54" gradientTransform="matrix(0.02,0,0,0.02,0,0)">
<stop offset="0.09" style="stop-color:rgb(98.039216%,56.078431%,12.941176%);stop-opacity:1;"/>
<stop offset="0.78" style="stop-color:rgb(84.705882%,17.647059%,49.411765%);stop-opacity:1;"/>
</radialGradient>
<radialGradient id="radial1" gradientUnits="userSpaceOnUse" cx="1516.14" cy="2623.81" fx="1516.14" fy="2623.81" r="2572.12" gradientTransform="matrix(0.02,0,0,0.02,0,0)">
<stop offset="0.64" style="stop-color:rgb(54.901961%,22.745098%,66.666667%);stop-opacity:0;"/>
<stop offset="1" style="stop-color:rgb(54.901961%,22.745098%,66.666667%);stop-opacity:1;"/>
</radialGradient>
</defs>
<g id="surface1">
<path style=" stroke:none;fill-rule:nonzero;fill:url(#radial0);" d="M 16.667969 25 C 16.667969 20.398438 20.398438 16.664062 25 16.664062 C 29.601562 16.664062 33.335938 20.398438 33.335938 25 C 33.335938 29.601562 29.601562 33.335938 25 33.335938 C 20.398438 33.335938 16.667969 29.601562 16.667969 25 M 12.164062 25 C 12.164062 32.089844 17.910156 37.835938 25 37.835938 C 32.089844 37.835938 37.835938 32.089844 37.835938 25 C 37.835938 17.910156 32.089844 12.164062 25 12.164062 C 17.910156 12.164062 12.164062 17.910156 12.164062 25 M 35.34375 11.652344 C 35.34375 13.3125 36.6875 14.65625 38.34375 14.65625 C 40 14.65625 41.34375 13.3125 41.34375 11.65625 C 41.347656 10 40.003906 8.65625 38.347656 8.65625 L 38.34375 8.65625 C 36.6875 8.65625 35.347656 9.996094 35.34375 11.652344 M 14.898438 45.347656 C 12.460938 45.238281 11.136719 44.832031 10.257812 44.488281 C 9.089844 44.035156 8.257812 43.492188 7.382812 42.621094 C 6.507812 41.746094 5.964844 40.914062 5.511719 39.746094 C 5.167969 38.867188 4.761719 37.539062 4.652344 35.101562 C 4.53125 32.46875 4.507812 31.675781 4.507812 25 C 4.507812 18.324219 4.53125 17.535156 4.652344 14.898438 C 4.761719 12.460938 5.171875 11.136719 5.511719 10.253906 C 5.964844 9.085938 6.507812 8.253906 7.382812 7.378906 C 8.257812 6.503906 9.089844 5.960938 10.257812 5.507812 C 11.136719 5.164062 12.460938 4.761719 14.898438 4.648438 C 17.535156 4.527344 18.328125 4.503906 25 4.503906 C 31.671875 4.503906 32.464844 4.53125 35.101562 4.648438 C 37.539062 4.761719 38.863281 5.167969 39.746094 5.507812 C 40.914062 5.960938 41.746094 6.503906 42.621094 7.378906 C 43.496094 8.253906 44.035156 9.085938 44.492188 10.253906 C 44.835938 11.132812 45.242188 12.460938 45.351562 14.898438 C 45.472656 17.535156 45.496094 18.324219 45.496094 25 C 45.496094 31.675781 45.472656 32.464844 45.351562 35.101562 C 45.238281 37.539062 44.832031 38.867188 44.492188 39.746094 C 44.035156 40.914062 43.496094 41.746094 42.621094 42.621094 C 41.746094 43.492188 40.914062 44.035156 39.746094 44.488281 C 38.867188 44.832031 37.539062 45.238281 35.101562 45.347656 C 32.46875 45.46875 31.675781 45.496094 25 45.496094 C 18.324219 45.496094 17.535156 45.46875 14.898438 45.347656 M 14.691406 0.152344 C 12.03125 0.273438 10.214844 0.695312 8.625 1.3125 C 6.980469 1.949219 5.585938 2.808594 4.195312 4.195312 C 2.804688 5.585938 1.949219 6.980469 1.3125 8.625 C 0.695312 10.214844 0.273438 12.03125 0.152344 14.691406 C 0.0273438 17.359375 0 18.210938 0 25 C 0 31.789062 0.0273438 32.640625 0.152344 35.308594 C 0.273438 37.96875 0.695312 39.785156 1.3125 41.375 C 1.949219 43.019531 2.804688 44.414062 4.195312 45.804688 C 5.585938 47.191406 6.980469 48.046875 8.625 48.6875 C 10.214844 49.304688 12.03125 49.726562 14.691406 49.847656 C 17.359375 49.96875 18.210938 50 25 50 C 31.789062 50 32.640625 49.972656 35.308594 49.847656 C 37.96875 49.726562 39.785156 49.304688 41.375 48.6875 C 43.019531 48.046875 44.414062 47.191406 45.804688 45.804688 C 47.195312 44.414062 48.046875 43.019531 48.6875 41.375 C 49.304688 39.785156 49.730469 37.96875 49.847656 35.308594 C 49.96875 32.640625 49.996094 31.789062 49.996094 25 C 49.996094 18.210938 49.96875 17.359375 49.847656 14.691406 C 49.726562 12.03125 49.304688 10.214844 48.6875 8.625 C 48.046875 6.980469 47.191406 5.585938 45.804688 4.195312 C 44.414062 2.804688 43.019531 1.949219 41.378906 1.3125 C 39.785156 0.695312 37.96875 0.269531 35.308594 0.152344 C 32.644531 0.03125 31.792969 0 25.003906 0 C 18.210938 0 17.359375 0.0273438 14.691406 0.152344 "/>
<path style=" stroke:none;fill-rule:nonzero;fill:url(#radial1);" d="M 16.667969 25 C 16.667969 20.398438 20.398438 16.664062 25 16.664062 C 29.601562 16.664062 33.335938 20.398438 33.335938 25 C 33.335938 29.601562 29.601562 33.335938 25 33.335938 C 20.398438 33.335938 16.667969 29.601562 16.667969 25 M 12.164062 25 C 12.164062 32.089844 17.910156 37.835938 25 37.835938 C 32.089844 37.835938 37.835938 32.089844 37.835938 25 C 37.835938 17.910156 32.089844 12.164062 25 12.164062 C 17.910156 12.164062 12.164062 17.910156 12.164062 25 M 35.34375 11.652344 C 35.34375 13.3125 36.6875 14.65625 38.34375 14.65625 C 40 14.65625 41.34375 13.3125 41.34375 11.65625 C 41.347656 10 40.003906 8.65625 38.347656 8.65625 L 38.34375 8.65625 C 36.6875 8.65625 35.347656 9.996094 35.34375 11.652344 M 14.898438 45.347656 C 12.460938 45.238281 11.136719 44.832031 10.257812 44.488281 C 9.089844 44.035156 8.257812 43.492188 7.382812 42.621094 C 6.507812 41.746094 5.964844 40.914062 5.511719 39.746094 C 5.167969 38.867188 4.761719 37.539062 4.652344 35.101562 C 4.53125 32.46875 4.507812 31.675781 4.507812 25 C 4.507812 18.324219 4.53125 17.535156 4.652344 14.898438 C 4.761719 12.460938 5.171875 11.136719 5.511719 10.253906 C 5.964844 9.085938 6.507812 8.253906 7.382812 7.378906 C 8.257812 6.503906 9.089844 5.960938 10.257812 5.507812 C 11.136719 5.164062 12.460938 4.761719 14.898438 4.648438 C 17.535156 4.527344 18.328125 4.503906 25 4.503906 C 31.671875 4.503906 32.464844 4.53125 35.101562 4.648438 C 37.539062 4.761719 38.863281 5.167969 39.746094 5.507812 C 40.914062 5.960938 41.746094 6.503906 42.621094 7.378906 C 43.496094 8.253906 44.035156 9.085938 44.492188 10.253906 C 44.835938 11.132812 45.242188 12.460938 45.351562 14.898438 C 45.472656 17.535156 45.496094 18.324219 45.496094 25 C 45.496094 31.675781 45.472656 32.464844 45.351562 35.101562 C 45.238281 37.539062 44.832031 38.867188 44.492188 39.746094 C 44.035156 40.914062 43.496094 41.746094 42.621094 42.621094 C 41.746094 43.492188 40.914062 44.035156 39.746094 44.488281 C 38.867188 44.832031 37.539062 45.238281 35.101562 45.347656 C 32.46875 45.46875 31.675781 45.496094 25 45.496094 C 18.324219 45.496094 17.535156 45.46875 14.898438 45.347656 M 14.691406 0.152344 C 12.03125 0.273438 10.214844 0.695312 8.625 1.3125 C 6.980469 1.949219 5.585938 2.808594 4.195312 4.195312 C 2.804688 5.585938 1.949219 6.980469 1.3125 8.625 C 0.695312 10.214844 0.273438 12.03125 0.152344 14.691406 C 0.0273438 17.359375 0 18.210938 0 25 C 0 31.789062 0.0273438 32.640625 0.152344 35.308594 C 0.273438 37.96875 0.695312 39.785156 1.3125 41.375 C 1.949219 43.019531 2.804688 44.414062 4.195312 45.804688 C 5.585938 47.191406 6.980469 48.046875 8.625 48.6875 C 10.214844 49.304688 12.03125 49.726562 14.691406 49.847656 C 17.359375 49.96875 18.210938 50 25 50 C 31.789062 50 32.640625 49.972656 35.308594 49.847656 C 37.96875 49.726562 39.785156 49.304688 41.375 48.6875 C 43.019531 48.046875 44.414062 47.191406 45.804688 45.804688 C 47.195312 44.414062 48.046875 43.019531 48.6875 41.375 C 49.304688 39.785156 49.730469 37.96875 49.847656 35.308594 C 49.96875 32.640625 49.996094 31.789062 49.996094 25 C 49.996094 18.210938 49.96875 17.359375 49.847656 14.691406 C 49.726562 12.03125 49.304688 10.214844 48.6875 8.625 C 48.046875 6.980469 47.191406 5.585938 45.804688 4.195312 C 44.414062 2.804688 43.019531 1.949219 41.378906 1.3125 C 39.785156 0.695312 37.96875 0.269531 35.308594 0.152344 C 32.644531 0.03125 31.792969 0 25.003906 0 C 18.210938 0 17.359375 0.0273438 14.691406 0.152344 "/>
</g>
</svg>
